<?xml version="1.0" encoding="UTF-8"?>
<svg width="40px" height="40px" viewBox="0 0 40 40" version="1.1" xmlns="http://www.w3.org/2000/svg" xmlns:xlink="http://www.w3.org/1999/xlink">
    <title>书签-图片类-2</title>
    <g id="页面-3" stroke="none" stroke-width="1" fill="none" fill-rule="evenodd">
        <g id="icons" transform="translate(-529.000000, -117.000000)">
            <g id="书签-图片类-2" transform="translate(529.000000, 117.000000)">
                <rect id="矩形" x="0" y="0" width="40" height="40"></rect>
                <g id="编组" transform="translate(5.000000, 6.000000)" fill="#DFE2E4" fill-rule="nonzero">
                    <path d="M3.13639394,1.77272727 L26.8636667,1.77272727 C27.5454848,1.77272727 28.0909394,2.31818182 28.0909394,3 L28.0909394,12.6818182 C26.8636667,11.7272727 24.5454848,10.2272727 22.7727576,10.2272727 C20.1818485,10.2272727 17.8636667,16.2272727 15.0000303,16.2272727 C12.8182121,16.0909091 9.81821212,13.6363636 6.40912121,14.0454545 C5.04548485,14.3181818 3.13639394,16.5 1.90912121,18.1363636 L1.90912121,3 C1.90912121,2.31818182 2.45457576,1.77272727 3.13639394,1.77272727 Z M8.86363636,11.5909091 C7.77272727,11.5909091 6.81818182,11.1818182 6.13636364,10.5 C5.45454545,9.81818182 5.04545455,8.72727273 5.04545455,7.77272727 C5.04545455,6.81818182 5.45454545,5.72727273 6.13636364,5.04545455 C6.81818182,4.36363636 7.77272727,3.95454545 8.86363636,3.95454545 C9.81818182,3.95454545 10.7727273,4.36363636 11.5909091,5.04545455 C12.2727273,5.72727273 12.6818182,6.81818182 12.6818182,7.77272727 C12.6818182,8.72727273 12.2727273,9.81818182 11.5909091,10.5 C10.7727273,11.1818182 9.81818182,11.5909091 8.86363636,11.5909091 Z M27.5454545,-8.61263922e-16 L2.45454545,-8.61263922e-16 C1.09090909,-8.61263922e-16 0,1.09090909 0,2.45454545 L0,24.8181818 C0,26.1818182 1.09090909,27.2727273 2.45454545,27.2727273 L27.5454545,27.2727273 C28.9090909,27.2727273 30,26.1818182 30,24.8181818 L30,2.45454545 C30,1.09090909 28.9090909,-8.61263922e-16 27.5454545,-8.61263922e-16 Z" id="形状"></path>
                </g>
            </g>
        </g>
    </g>
</svg>