<?xml version="1.0" standalone="no"?><!DOCTYPE svg PUBLIC "-//W3C//DTD SVG 1.1//EN" "http://www.w3.org/Graphics/SVG/1.1/DTD/svg11.dtd"><svg t="1647481946753" class="icon" viewBox="0 0 1024 1024" version="1.1" xmlns="http://www.w3.org/2000/svg" p-id="14190" xmlns:xlink="http://www.w3.org/1999/xlink" width="64" height="64"><defs><style type="text/css"></style></defs><path d="M221.013333 251.306667a341.333333 341.333333 0 0 1 17.92-42.666667 69.12 69.12 0 0 1 17.066667-24.746667 47.36 47.36 0 0 1 22.186667-9.813333A175.36 175.36 0 0 1 309.333333 170.666667h109.226667L309.333333 838.4H165.546667a69.546667 69.546667 0 0 1-73.813334-40.106667 180.053333 180.053333 0 0 1 6.826667-113.066666q7.68-23.466667 17.92-60.16c6.826667-23.893333 14.506667-49.92 22.186667-78.08s15.786667-57.173333 23.466666-85.333334l23.04-85.333333 20.48-72.96c5.973333-21.76 11.093333-39.253333 15.36-52.053333z m322.56 32h-68.693333L480.426667 170.666667h56.746666z m13.226667 279.04h-95.146667L472.32 341.333333h74.24z m0 55.893333l10.666667 222.72h-119.04l10.666666-222.72z m367.786667 78.08a246.613333 246.613333 0 0 1 14.08 44.8 170.666667 170.666667 0 0 1 0 46.506667 72.533333 72.533333 0 0 1-17.493334 36.266666 54.186667 54.186667 0 0 1-42.666666 14.506667h-170.666667L597.333333 170.666667h88.32a146.346667 146.346667 0 0 1 78.933334 20.053333 128 128 0 0 1 49.066666 72.533333q5.546667 16.64 14.08 51.2l20.48 78.933334c7.68 29.44 15.36 60.16 23.04 91.733333s15.36 61.866667 22.186667 90.026667l20.053333 75.093333q8.106667 32.426667 12.8 46.08z" fill="#2D5A9D" p-id="14191"></path></svg>