<?xml version="1.0" standalone="no"?><!DOCTYPE svg PUBLIC "-//W3C//DTD SVG 1.1//EN" "http://www.w3.org/Graphics/SVG/1.1/DTD/svg11.dtd"><svg t="1647481938635" class="icon" viewBox="0 0 1024 1024" version="1.1" xmlns="http://www.w3.org/2000/svg" p-id="13911" xmlns:xlink="http://www.w3.org/1999/xlink" width="64" height="64"><defs><style type="text/css"></style></defs><path d="M755.626667 128H268.373333A92.586667 92.586667 0 0 0 170.666667 213.333333v682.666667l341.333333-128 341.333333 128V213.333333a92.586667 92.586667 0 0 0-97.706666-85.333333z m-7.68 376.32a31.573333 31.573333 0 0 1-32.426667 30.72H308.48a32 32 0 0 1-32.853333-30.72v-17.493333a32 32 0 0 1 32.853333-31.146667h407.04a32 32 0 0 1 32.426667 31.146667z m0-176.64a31.573333 31.573333 0 0 1-32.426667 30.72H308.48a32 32 0 0 1-32.853333-30.72v-17.493333a32 32 0 0 1 32.853333-31.146667h407.04a32 32 0 0 1 32.426667 31.146667z" fill="#2D5A9D" p-id="13912"></path></svg>