<?xml version="1.0" standalone="no"?><!DOCTYPE svg PUBLIC "-//W3C//DTD SVG 1.1//EN" "http://www.w3.org/Graphics/SVG/1.1/DTD/svg11.dtd"><svg t="1646030164715" class="icon" viewBox="0 0 1024 1024" version="1.1" xmlns="http://www.w3.org/2000/svg" p-id="13337" xmlns:xlink="http://www.w3.org/1999/xlink" width="64" height="64"><defs><style type="text/css"></style></defs><path d="M665.6 42.666667a39.253333 39.253333 0 0 1 23.466667 8.106666l3.84 3.413334 186.026666 187.306666a57.173333 57.173333 0 0 1 16.64 35.413334v607.573333c0 27.733333 0 85.333333-55.04 85.333333H185.6A57.173333 57.173333 0 0 1 128 918.186667V100.693333A57.6 57.6 0 0 1 180.053333 42.666667H665.6z m-76.8 77.226666h-384v773.546667h614.4V352h-170.666667A57.173333 57.173333 0 0 1 589.226667 298.666667V119.893333zM537.6 661.333333a34.133333 34.133333 0 0 1 38.4 38.826667 34.133333 34.133333 0 0 1-38.4 38.4H326.4a34.133333 34.133333 0 0 1-38.4-38.4 34.133333 34.133333 0 0 1 38.4-38.826667z m96-154.88a33.28 33.28 0 0 1 37.973333 33.28v5.546667a34.133333 34.133333 0 0 1-38.4 38.826667H326.4a33.28 33.28 0 0 1-37.973333-32.853334v-5.973333a34.133333 34.133333 0 0 1 38.4-38.826667z m-192-154.453333a33.28 33.28 0 0 1 37.973333 32.853333v5.973334a34.133333 34.133333 0 0 1-38.4 38.4H326.4a32.853333 32.853333 0 0 1-37.973333-32.853334v-5.546666a34.133333 34.133333 0 0 1 38.4-38.826667z m224-215.893333v138.666666h137.813333z" fill="#2D5A9D" p-id="13338"></path></svg>