<?xml version="1.0" standalone="no"?><!DOCTYPE svg PUBLIC "-//W3C//DTD SVG 1.1//EN" "http://www.w3.org/Graphics/SVG/1.1/DTD/svg11.dtd"><svg t="1646884548101" class="icon" viewBox="0 0 1024 1024" version="1.1" xmlns="http://www.w3.org/2000/svg" p-id="13908" xmlns:xlink="http://www.w3.org/1999/xlink" width="32" height="32"><defs><style type="text/css"></style></defs><path d="M208.384 198.912h607.232A31.232 31.232 0 0 1 847.104 230.4v247.808c-31.488-24.32-90.624-62.72-136.192-62.72-66.304 0-125.696 153.6-198.912 153.6-55.808-3.584-132.608-66.304-219.904-55.808-34.816 6.912-83.712 62.72-115.2 104.704V230.4a31.232 31.232 0 0 1 31.488-31.488z m146.432 251.392a97.28 97.28 0 0 1-69.632-27.904 102.4 102.4 0 0 1 0-139.52A96.256 96.256 0 0 1 354.816 256a110.08 110.08 0 0 1 69.888 28.16 102.4 102.4 0 0 1 0 139.52 111.104 111.104 0 0 1-69.888 26.624zM833.28 153.6H190.72A62.464 62.464 0 0 0 128 216.32v572.672a62.464 62.464 0 0 0 62.72 62.72h642.56A62.464 62.464 0 0 0 896 788.992V216.32A62.464 62.464 0 0 0 833.28 153.6z" fill="#3E87F4" p-id="13909"></path></svg>