<?xml version="1.0" standalone="no"?><!DOCTYPE svg PUBLIC "-//W3C//DTD SVG 1.1//EN" "http://www.w3.org/Graphics/SVG/1.1/DTD/svg11.dtd"><svg t="1646884269396" class="icon" viewBox="0 0 1024 1024" version="1.1" xmlns="http://www.w3.org/2000/svg" p-id="12445" xmlns:xlink="http://www.w3.org/1999/xlink" width="32" height="32"><defs><style type="text/css"></style></defs><path d="M780.8 128h-537.6A115.712 115.712 0 0 0 128 243.2v614.4a38.656 38.656 0 0 0 23.552 35.584 41.472 41.472 0 0 0 14.848 2.816 40.192 40.192 0 0 0 27.392-11.008L336.384 742.4H780.8a115.456 115.456 0 0 0 115.2-115.2v-384A115.456 115.456 0 0 0 780.8 128zM819.2 627.2a38.4 38.4 0 0 1-38.4 38.4h-460.8a39.168 39.168 0 0 0-27.392 11.008L204.8 764.928V243.2A38.4 38.4 0 0 1 243.2 204.8h537.6A38.4 38.4 0 0 1 819.2 243.2z m-115.2-307.2h-384a38.4 38.4 0 0 0 0 76.8h384a38.4 38.4 0 0 0 0-76.8z m0 153.6h-384a38.4 38.4 0 0 0 0 76.8h384a38.4 38.4 0 0 0 0-76.8z" fill="#3E87F4" p-id="12446"></path></svg>