<?xml version="1.0" standalone="no"?><!DOCTYPE svg PUBLIC "-//W3C//DTD SVG 1.1//EN" "http://www.w3.org/Graphics/SVG/1.1/DTD/svg11.dtd"><svg t="1646031511590" class="icon" viewBox="0 0 1024 1024" version="1.1" xmlns="http://www.w3.org/2000/svg" p-id="13603" xmlns:xlink="http://www.w3.org/1999/xlink" width="64" height="64"><defs><style type="text/css"></style></defs><path d="M665.6 42.666667a39.253333 39.253333 0 0 1 23.466667 8.106666l3.84 2.986667 186.026666 186.453333a55.04 55.04 0 0 1 16.64 34.986667v164.266667a38.4 38.4 0 0 1-76.373333 4.693333V349.866667h-170.666667A57.173333 57.173333 0 0 1 589.226667 298.666667V119.466667h-384v768H512a37.973333 37.973333 0 0 1 37.973333 33.706666v4.693334a37.973333 37.973333 0 0 1-33.706666 37.973333H185.6A57.173333 57.173333 0 0 1 128 912.213333v-810.666666A57.173333 57.173333 0 0 1 180.053333 42.666667H665.6z m153.6 492.8a45.653333 45.653333 0 0 1 33.706667 14.08 49.493333 49.493333 0 0 1 14.08 34.56v324.693333a50.346667 50.346667 0 0 1-14.08 34.986667 51.626667 51.626667 0 0 1-42.666667 11.093333 717.226667 717.226667 0 0 1-85.333333-87.466667 597.333333 597.333333 0 0 1-82.346667 87.466667 42.666667 42.666667 0 0 1-42.666667-11.093333 52.906667 52.906667 0 0 1-14.506666-34.986667v-324.693333a51.626667 51.626667 0 0 1 14.506666-34.56 45.653333 45.653333 0 0 1 33.706667-14.08h185.6zM403.2 657.066667a33.28 33.28 0 0 1 37.973333 32.853333v5.546667a34.133333 34.133333 0 0 1-38.4 38.4H288a33.28 33.28 0 0 1-37.973333-32.853334v-5.546666a34.133333 34.133333 0 0 1 38.4-38.4z m85.333333-153.6a34.133333 34.133333 0 0 1 38.4 38.4 34.133333 34.133333 0 0 1-38.4 38.4h-200.533333a34.133333 34.133333 0 0 1-38.4-38.4 34.133333 34.133333 0 0 1 38.4-38.4z m-85.333333-153.6a33.28 33.28 0 0 1 37.973333 32.853333v5.546667a34.133333 34.133333 0 0 1-38.4 38.4H288a33.28 33.28 0 0 1-37.973333-32.853334V388.266667a34.133333 34.133333 0 0 1 38.4-38.4z m262.4-213.333334v136.533334h137.813333z" fill="#2D5A9D" p-id="13604"></path></svg>