<?xml version="1.0" standalone="no"?><!DOCTYPE svg PUBLIC "-//W3C//DTD SVG 1.1//EN" "http://www.w3.org/Graphics/SVG/1.1/DTD/svg11.dtd"><svg t="1646031507869" class="icon" viewBox="0 0 1024 1024" version="1.1" xmlns="http://www.w3.org/2000/svg" p-id="13470" xmlns:xlink="http://www.w3.org/1999/xlink" width="64" height="64"><defs><style type="text/css"></style></defs><path d="M896 925.44a8.106667 8.106667 0 0 1-8.106667 8.106667H256a128 128 0 0 1-128-128V236.8A160 160 0 0 1 288 85.333333h599.893333a7.68 7.68 0 0 1 8.106667 8.106667v47.786667a7.68 7.68 0 0 1-8.106667 8.106666H287.573333a96 96 0 1 0 0 192h600.32a7.68 7.68 0 0 1 8.106667 8.106667zM192 373.333333v432.213334a64 64 0 0 0 64 64h576V405.333333h-125.866667v285.44a8.106667 8.106667 0 0 1-13.653333 5.546667l-110.933333-106.24a8.106667 8.106667 0 0 0-11.093334 0l-108.8 106.24a8.106667 8.106667 0 0 1-13.653333-5.973333V405.333333H288a160.426667 160.426667 0 0 1-96-32zM887.893333 213.333333a7.68 7.68 0 0 1 8.106667 8.106667v47.786667a7.68 7.68 0 0 1-8.106667 8.106666H264.106667A7.68 7.68 0 0 1 256 269.226667V221.44A7.68 7.68 0 0 1 264.106667 213.333333z" fill="#2D5A9D" p-id="13471"></path></svg>