<?xml version="1.0" standalone="no"?><!DOCTYPE svg PUBLIC "-//W3C//DTD SVG 1.1//EN" "http://www.w3.org/Graphics/SVG/1.1/DTD/svg11.dtd"><svg t="1646884277096" class="icon" viewBox="0 0 1024 1024" version="1.1" xmlns="http://www.w3.org/2000/svg" p-id="12711" xmlns:xlink="http://www.w3.org/1999/xlink" width="32" height="32"><defs><style type="text/css"></style></defs><path d="M774.144 896H249.856A81.664 81.664 0 0 1 179.2 825.6V192A68.608 68.608 0 0 1 241.152 128h358.4L844.8 373.248v454.4A81.664 81.664 0 0 1 774.144 896z m0-522.752h-139.008a38.144 38.144 0 0 1-34.304-34.048v-140.8H284.16a33.536 33.536 0 0 0-34.304 34.048v559.104a43.52 43.52 0 0 0 34.304 34.048h455.68a36.608 36.608 0 0 0 34.304-34.048zM555.776 755.2L512 548.352l-51.2 206.848h-69.632l-72.96-347.648h72.96l38.4 215.296 49.152-215.296h68.608l42.752 215.296 32.256-153.6h-27.904v-61.696h109.056L620.032 755.2z" fill="#3E87F4" p-id="12712"></path></svg>